<?xml version="1.0" encoding="UTF-8" standalone="no"?>
<!DOCTYPE svg PUBLIC "-//W3C//DTD SVG 1.1//EN"
 "http://www.w3.org/Graphics/SVG/1.1/DTD/svg11.dtd">
<!-- Generated by graphviz version 2.38.0 (20140413.2041)
 -->
<!-- Title: alexandria Pages: 1 -->
<svg width="692pt" height="248pt"
 viewBox="0.00 0.00 692.00 248.00" xmlns="http://www.w3.org/2000/svg" xmlns:xlink="http://www.w3.org/1999/xlink">
<g id="graph0" class="graph" transform="scale(1 1) rotate(0) translate(4 244)">
<title>alexandria</title>
<polygon fill="white" stroke="none" points="-4,4 -4,-244 688,-244 688,4 -4,4"/>
<!-- io -->
<g id="node1" class="node"><title>io</title>
<polygon fill="none" stroke="black" points="162.5,-144 108.5,-144 108.5,-108 162.5,-108 162.5,-144"/>
<text text-anchor="middle" x="135.5" y="-122.3" font-family="Times,serif" font-size="14.00">io</text>
</g>
<!-- macros -->
<g id="node2" class="node"><title>macros</title>
<polygon fill="none" stroke="black" points="577,-194 521,-194 521,-158 577,-158 577,-194"/>
<text text-anchor="middle" x="549" y="-172.3" font-family="Times,serif" font-size="14.00">macros</text>
</g>
<!-- io&#45;&gt;macros -->
<g id="edge1" class="edge"><title>io&#45;&gt;macros</title>
<path fill="none" stroke="black" d="M136,-144.027C136,-160.398 136,-182 136,-182 136,-182 510.938,-182 510.938,-182"/>
<polygon fill="black" stroke="black" points="510.938,-185.5 520.938,-182 510.937,-178.5 510.938,-185.5"/>
</g>
<!-- lists -->
<g id="node3" class="node"><title>lists</title>
<polygon fill="none" stroke="black" points="353.5,-94 299.5,-94 299.5,-58 353.5,-58 353.5,-94"/>
<text text-anchor="middle" x="326.5" y="-72.3" font-family="Times,serif" font-size="14.00">lists</text>
</g>
<!-- io&#45;&gt;lists -->
<g id="edge2" class="edge"><title>io&#45;&gt;lists</title>
<path fill="none" stroke="black" d="M162.563,-122.667C175.833,-122.667 189,-122.667 189,-122.667 189,-122.667 189,-82 189,-82 189,-82 289.334,-82 289.334,-82"/>
<polygon fill="black" stroke="black" points="289.334,-85.5001 299.334,-82 289.334,-78.5001 289.334,-85.5001"/>
</g>
<!-- types -->
<g id="node4" class="node"><title>types</title>
<polygon fill="none" stroke="black" points="261,-48 207,-48 207,-12 261,-12 261,-48"/>
<text text-anchor="middle" x="234" y="-26.3" font-family="Times,serif" font-size="14.00">types</text>
</g>
<!-- io&#45;&gt;types -->
<g id="edge3" class="edge"><title>io&#45;&gt;types</title>
<path fill="none" stroke="black" d="M162.839,-133.333C189.16,-133.333 225,-133.333 225,-133.333 225,-133.333 225,-58.4739 225,-58.4739"/>
<polygon fill="black" stroke="black" points="228.5,-58.4739 225,-48.4739 221.5,-58.474 228.5,-58.4739"/>
</g>
<!-- strings -->
<g id="node5" class="node"><title>strings</title>
<polygon fill="none" stroke="black" points="680,-194 626,-194 626,-158 680,-158 680,-194"/>
<text text-anchor="middle" x="653" y="-172.3" font-family="Times,serif" font-size="14.00">strings</text>
</g>
<!-- macros&#45;&gt;strings -->
<g id="edge4" class="edge"><title>macros&#45;&gt;strings</title>
<path fill="none" stroke="black" d="M577.144,-182C577.144,-182 615.911,-182 615.911,-182"/>
<polygon fill="black" stroke="black" points="615.911,-185.5 625.911,-182 615.911,-178.5 615.911,-185.5"/>
</g>
<!-- symbols -->
<g id="node6" class="node"><title>symbols</title>
<polygon fill="none" stroke="black" points="684,-94 622,-94 622,-58 684,-58 684,-94"/>
<text text-anchor="middle" x="653" y="-72.3" font-family="Times,serif" font-size="14.00">symbols</text>
</g>
<!-- macros&#45;&gt;symbols -->
<g id="edge5" class="edge"><title>macros&#45;&gt;symbols</title>
<path fill="none" stroke="black" d="M577.144,-170C590.676,-170 604,-170 604,-170 604,-170 604,-85 604,-85 604,-85 611.968,-85 611.968,-85"/>
<polygon fill="black" stroke="black" points="611.968,-88.5001 621.968,-85 611.968,-81.5001 611.968,-88.5001"/>
</g>
<!-- functions -->
<g id="node10" class="node"><title>functions</title>
<polygon fill="none" stroke="black" points="467.5,-94 400.5,-94 400.5,-58 467.5,-58 467.5,-94"/>
<text text-anchor="middle" x="434" y="-72.3" font-family="Times,serif" font-size="14.00">functions</text>
</g>
<!-- lists&#45;&gt;functions -->
<g id="edge11" class="edge"><title>lists&#45;&gt;functions</title>
<path fill="none" stroke="black" d="M353.627,-76C353.627,-76 390.337,-76 390.337,-76"/>
<polygon fill="black" stroke="black" points="390.337,-79.5001 400.337,-76 390.336,-72.5001 390.337,-79.5001"/>
</g>
<!-- types&#45;&gt;lists -->
<g id="edge13" class="edge"><title>types&#45;&gt;lists</title>
<path fill="none" stroke="black" d="M243,-48.4218C243,-57.2791 243,-66 243,-66 243,-66 289.159,-66 289.159,-66"/>
<polygon fill="black" stroke="black" points="289.159,-69.5001 299.159,-66 289.159,-62.5001 289.159,-69.5001"/>
</g>
<!-- types&#45;&gt;symbols -->
<g id="edge12" class="edge"><title>types&#45;&gt;symbols</title>
<path fill="none" stroke="black" d="M261.234,-30C354.304,-30 654,-30 654,-30 654,-30 654,-47.8196 654,-47.8196"/>
<polygon fill="black" stroke="black" points="650.5,-47.8195 654,-57.8196 657.5,-47.8196 650.5,-47.8195"/>
</g>
<!-- hash&#45;tables -->
<g id="node7" class="node"><title>hash&#45;tables</title>
<polygon fill="none" stroke="black" points="472.5,-240 395.5,-240 395.5,-204 472.5,-204 472.5,-240"/>
<text text-anchor="middle" x="434" y="-218.3" font-family="Times,serif" font-size="14.00">hash&#45;tables</text>
</g>
<!-- hash&#45;tables&#45;&gt;macros -->
<g id="edge6" class="edge"><title>hash&#45;tables&#45;&gt;macros</title>
<path fill="none" stroke="black" d="M472.613,-222C506.022,-222 549,-222 549,-222 549,-222 549,-204.18 549,-204.18"/>
<polygon fill="black" stroke="black" points="552.5,-204.18 549,-194.18 545.5,-204.18 552.5,-204.18"/>
</g>
<!-- control&#45;flow -->
<g id="node8" class="node"><title>control&#45;flow</title>
<polygon fill="none" stroke="black" points="476,-148 392,-148 392,-112 476,-112 476,-148"/>
<text text-anchor="middle" x="434" y="-126.3" font-family="Times,serif" font-size="14.00">control&#45;flow</text>
</g>
<!-- control&#45;flow&#45;&gt;macros -->
<g id="edge8" class="edge"><title>control&#45;flow&#45;&gt;macros</title>
<path fill="none" stroke="black" d="M476.169,-144C508.99,-144 549,-144 549,-144 549,-144 549,-147.757 549,-147.757"/>
<polygon fill="black" stroke="black" points="545.5,-147.757 549,-157.757 552.5,-147.757 545.5,-147.757"/>
</g>
<!-- definitions -->
<g id="node9" class="node"><title>definitions</title>
<polygon fill="none" stroke="black" points="586,-140 512,-140 512,-104 586,-104 586,-140"/>
<text text-anchor="middle" x="549" y="-118.3" font-family="Times,serif" font-size="14.00">definitions</text>
</g>
<!-- control&#45;flow&#45;&gt;definitions -->
<g id="edge7" class="edge"><title>control&#45;flow&#45;&gt;definitions</title>
<path fill="none" stroke="black" d="M476.169,-126C476.169,-126 501.774,-126 501.774,-126"/>
<polygon fill="black" stroke="black" points="501.775,-129.5 511.774,-126 501.774,-122.5 501.775,-129.5"/>
</g>
<!-- functions&#45;&gt;macros -->
<g id="edge10" class="edge"><title>functions&#45;&gt;macros</title>
<path fill="none" stroke="black" d="M467.508,-76C481.252,-76 494,-76 494,-76 494,-76 494,-170 494,-170 494,-170 510.856,-170 510.856,-170"/>
<polygon fill="black" stroke="black" points="510.856,-173.5 520.856,-170 510.855,-166.5 510.856,-173.5"/>
</g>
<!-- functions&#45;&gt;symbols -->
<g id="edge9" class="edge"><title>functions&#45;&gt;symbols</title>
<path fill="none" stroke="black" d="M467.739,-67C467.739,-67 611.708,-67 611.708,-67"/>
<polygon fill="black" stroke="black" points="611.708,-70.5001 621.708,-67 611.708,-63.5001 611.708,-70.5001"/>
</g>
<!-- arrays -->
<g id="node11" class="node"><title>arrays</title>
<polygon fill="none" stroke="black" points="162.5,-36 108.5,-36 108.5,-0 162.5,-0 162.5,-36"/>
<text text-anchor="middle" x="135.5" y="-14.3" font-family="Times,serif" font-size="14.00">arrays</text>
</g>
<!-- arrays&#45;&gt;types -->
<g id="edge14" class="edge"><title>arrays&#45;&gt;types</title>
<path fill="none" stroke="black" d="M162.676,-24C162.676,-24 196.912,-24 196.912,-24"/>
<polygon fill="black" stroke="black" points="196.912,-27.5001 206.912,-24 196.912,-20.5001 196.912,-27.5001"/>
</g>
<!-- sequences -->
<g id="node12" class="node"><title>sequences</title>
<polygon fill="none" stroke="black" points="171,-90 100,-90 100,-54 171,-54 171,-90"/>
<text text-anchor="middle" x="135.5" y="-68.3" font-family="Times,serif" font-size="14.00">sequences</text>
</g>
<!-- sequences&#45;&gt;lists -->
<g id="edge15" class="edge"><title>sequences&#45;&gt;lists</title>
<path fill="none" stroke="black" d="M171.426,-74C171.426,-74 289.375,-74 289.375,-74"/>
<polygon fill="black" stroke="black" points="289.375,-77.5001 299.375,-74 289.375,-70.5001 289.375,-77.5001"/>
</g>
<!-- sequences&#45;&gt;types -->
<g id="edge16" class="edge"><title>sequences&#45;&gt;types</title>
<path fill="none" stroke="black" d="M167,-53.8568C167,-47.5389 167,-42 167,-42 167,-42 196.749,-42 196.749,-42"/>
<polygon fill="black" stroke="black" points="196.749,-45.5001 206.749,-42 196.749,-38.5001 196.749,-45.5001"/>
</g>
<!-- numbers -->
<g id="node13" class="node"><title>numbers</title>
<polygon fill="none" stroke="black" points="64,-90 0,-90 0,-54 64,-54 64,-90"/>
<text text-anchor="middle" x="32" y="-68.3" font-family="Times,serif" font-size="14.00">numbers</text>
</g>
<!-- numbers&#45;&gt;sequences -->
<g id="edge17" class="edge"><title>numbers&#45;&gt;sequences</title>
<path fill="none" stroke="black" d="M64.1807,-72C64.1807,-72 89.734,-72 89.734,-72"/>
<polygon fill="black" stroke="black" points="89.734,-75.5001 99.734,-72 89.7339,-68.5001 89.734,-75.5001"/>
</g>
<!-- features -->
<g id="node14" class="node"><title>features</title>
<polygon fill="none" stroke="black" points="356,-148 297,-148 297,-112 356,-112 356,-148"/>
<text text-anchor="middle" x="326.5" y="-126.3" font-family="Times,serif" font-size="14.00">features</text>
</g>
<!-- features&#45;&gt;control&#45;flow -->
<g id="edge18" class="edge"><title>features&#45;&gt;control&#45;flow</title>
<path fill="none" stroke="black" d="M356.159,-130C356.159,-130 381.965,-130 381.965,-130"/>
<polygon fill="black" stroke="black" points="381.965,-133.5 391.965,-130 381.965,-126.5 381.965,-133.5"/>
</g>
</g>
</svg>
