<?xml version="1.0" encoding="UTF-8" standalone="no"?>
<!DOCTYPE svg PUBLIC "-//W3C//DTD SVG 1.1//EN"
 "http://www.w3.org/Graphics/SVG/1.1/DTD/svg11.dtd">
<!-- Generated by graphviz version 2.38.0 (20140413.2041)
 -->
<!-- Title: jeffrey Pages: 1 -->
<svg width="710pt" height="497pt"
 viewBox="0.00 0.00 710.00 497.00" xmlns="http://www.w3.org/2000/svg" xmlns:xlink="http://www.w3.org/1999/xlink">
<g id="graph0" class="graph" transform="scale(1 1) rotate(0) translate(4 493)">
<title>jeffrey</title>
<polygon fill="white" stroke="none" points="-4,4 -4,-493 706,-493 706,4 -4,4"/>
<g id="clust1" class="cluster"><title>clustercore</title>
<polygon fill="#ffb2b2" stroke="#ffb2b2" points="287,-91 287,-206 669,-206 669,-91 287,-91"/>
<text text-anchor="middle" x="478" y="-190.8" font-family="Times,serif" font-size="14.00">core</text>
</g>
<g id="clust2" class="cluster"><title>clusterparse</title>
<polygon fill="#efffb2" stroke="#efffb2" points="574,-214 574,-451 694,-451 694,-214 574,-214"/>
<text text-anchor="middle" x="634" y="-435.8" font-family="Times,serif" font-size="14.00">parse</text>
</g>
<g id="clust3" class="cluster"><title>clusterutil</title>
<polygon fill="#b2ffd1" stroke="#b2ffd1" points="8,-85 8,-214 160,-214 160,-85 8,-85"/>
<text text-anchor="middle" x="84" y="-198.8" font-family="Times,serif" font-size="14.00">util</text>
</g>
<g id="clust4" class="cluster"><title>clusterweb</title>
<polygon fill="#b2d1ff" stroke="#b2d1ff" points="47,-406 47,-481 267,-481 267,-406 47,-406"/>
<text text-anchor="middle" x="157" y="-465.8" font-family="Times,serif" font-size="14.00">web</text>
</g>
<g id="clust5" class="cluster"><title>clustertest</title>
<polygon fill="#efb2ff" stroke="#efb2ff" points="287,-8 287,-83 357,-83 357,-8 287,-8"/>
<text text-anchor="middle" x="322" y="-67.8" font-family="Times,serif" font-size="14.00">test</text>
</g>
<!-- read -->
<g id="node1" class="node"><title>read</title>
<polygon fill="none" stroke="black" points="546,-175 492,-175 492,-139 546,-139 546,-175"/>
<text text-anchor="middle" x="519" y="-153.3" font-family="Times,serif" font-size="14.00">read</text>
</g>
<!-- graph -->
<g id="node2" class="node"><title>graph</title>
<polygon fill="none" stroke="black" points="661,-135 607,-135 607,-99 661,-99 661,-135"/>
<text text-anchor="middle" x="634" y="-113.3" font-family="Times,serif" font-size="14.00">graph</text>
</g>
<!-- read&#45;&gt;graph -->
<g id="edge1" class="edge"><title>read&#45;&gt;graph</title>
<path fill="none" stroke="black" d="M528,-138.857C528,-132.539 528,-127 528,-127 528,-127 596.977,-127 596.977,-127"/>
<polygon fill="black" stroke="black" points="596.977,-130.5 606.977,-127 596.977,-123.5 596.977,-130.5"/>
</g>
<!-- parse -->
<g id="node5" class="node"><title>parse</title>
<polygon fill="none" stroke="black" points="661,-312 607,-312 607,-276 661,-276 661,-312"/>
<text text-anchor="middle" x="634" y="-290.3" font-family="Times,serif" font-size="14.00">parse</text>
</g>
<!-- read&#45;&gt;parse -->
<g id="edge2" class="edge"><title>read&#45;&gt;parse</title>
<path fill="none" stroke="black" d="M519,-175.193C519,-212.459 519,-294 519,-294 519,-294 596.747,-294 596.747,-294"/>
<polygon fill="black" stroke="black" points="596.747,-297.5 606.747,-294 596.747,-290.5 596.747,-297.5"/>
</g>
<!-- process&#45;strings -->
<g id="node6" class="node"><title>process&#45;strings</title>
<polygon fill="none" stroke="black" points="683,-258 585,-258 585,-222 683,-222 683,-258"/>
<text text-anchor="middle" x="634" y="-236.3" font-family="Times,serif" font-size="14.00">process&#45;strings</text>
</g>
<!-- read&#45;&gt;process&#45;strings -->
<g id="edge3" class="edge"><title>read&#45;&gt;process&#45;strings</title>
<path fill="none" stroke="black" d="M546.364,-157C568.496,-157 596,-157 596,-157 596,-157 596,-211.99 596,-211.99"/>
<polygon fill="black" stroke="black" points="592.5,-211.99 596,-221.99 599.5,-211.99 592.5,-211.99"/>
</g>
<!-- draw -->
<g id="node3" class="node"><title>draw</title>
<polygon fill="none" stroke="black" points="349,-137 295,-137 295,-101 349,-101 349,-137"/>
<text text-anchor="middle" x="322" y="-115.3" font-family="Times,serif" font-size="14.00">draw</text>
</g>
<!-- draw&#45;&gt;read -->
<g id="edge6" class="edge"><title>draw&#45;&gt;read</title>
<path fill="none" stroke="black" d="M322,-137.103C322,-148.086 322,-160 322,-160 322,-160 481.608,-160 481.608,-160"/>
<polygon fill="black" stroke="black" points="481.608,-163.5 491.608,-160 481.608,-156.5 481.608,-163.5"/>
</g>
<!-- draw&#45;&gt;graph -->
<g id="edge7" class="edge"><title>draw&#45;&gt;graph</title>
<path fill="none" stroke="black" d="M349.142,-110C349.142,-110 596.698,-110 596.698,-110"/>
<polygon fill="black" stroke="black" points="596.698,-113.5 606.698,-110 596.698,-106.5 596.698,-113.5"/>
</g>
<!-- predicates -->
<g id="node4" class="node"><title>predicates</title>
<polygon fill="none" stroke="black" points="456,-155 385,-155 385,-119 456,-119 456,-155"/>
<text text-anchor="middle" x="420.5" y="-133.3" font-family="Times,serif" font-size="14.00">predicates</text>
</g>
<!-- draw&#45;&gt;predicates -->
<g id="edge8" class="edge"><title>draw&#45;&gt;predicates</title>
<path fill="none" stroke="black" d="M349.176,-128C349.176,-128 374.921,-128 374.921,-128"/>
<polygon fill="black" stroke="black" points="374.921,-131.5 384.921,-128 374.921,-124.5 374.921,-131.5"/>
</g>
<!-- predicates&#45;&gt;read -->
<g id="edge4" class="edge"><title>predicates&#45;&gt;read</title>
<path fill="none" stroke="black" d="M456.061,-147C456.061,-147 481.84,-147 481.84,-147"/>
<polygon fill="black" stroke="black" points="481.84,-150.5 491.84,-147 481.84,-143.5 481.84,-150.5"/>
</g>
<!-- predicates&#45;&gt;graph -->
<g id="edge5" class="edge"><title>predicates&#45;&gt;graph</title>
<path fill="none" stroke="black" d="M456.235,-123C456.235,-123 596.962,-123 596.962,-123"/>
<polygon fill="black" stroke="black" points="596.962,-126.5 606.962,-123 596.962,-119.5 596.962,-126.5"/>
</g>
<!-- latex&#45;in&#45;html -->
<g id="node7" class="node"><title>latex&#45;in&#45;html</title>
<polygon fill="none" stroke="black" points="678,-420 590,-420 590,-384 678,-384 678,-420"/>
<text text-anchor="middle" x="634" y="-398.3" font-family="Times,serif" font-size="14.00">latex&#45;in&#45;html</text>
</g>
<!-- latex&#45;in&#45;html&#45;&gt;graph -->
<g id="edge15" class="edge"><title>latex&#45;in&#45;html&#45;&gt;graph</title>
<path fill="none" stroke="black" d="M589.668,-394C575.776,-394 564,-394 564,-394 564,-394 564,-131 564,-131 564,-131 596.736,-131 596.736,-131"/>
<polygon fill="black" stroke="black" points="596.736,-134.5 606.736,-131 596.736,-127.5 596.736,-134.5"/>
</g>
<!-- parse&#45;web&#45;input -->
<g id="node8" class="node"><title>parse&#45;web&#45;input</title>
<polygon fill="none" stroke="black" points="686,-366 582,-366 582,-330 686,-330 686,-366"/>
<text text-anchor="middle" x="634" y="-344.3" font-family="Times,serif" font-size="14.00">parse&#45;web&#45;input</text>
</g>
<!-- example&#45;form&#45;groups -->
<g id="node9" class="node"><title>example&#45;form&#45;groups</title>
<polygon fill="none" stroke="black" points="152,-183 16,-183 16,-147 152,-147 152,-183"/>
<text text-anchor="middle" x="84" y="-161.3" font-family="Times,serif" font-size="14.00">example&#45;form&#45;groups</text>
</g>
<!-- main -->
<g id="node14" class="node"><title>main</title>
<polygon fill="none" stroke="black" points="250.5,-183 196.5,-183 196.5,-147 250.5,-147 250.5,-183"/>
<text text-anchor="middle" x="223.5" y="-161.3" font-family="Times,serif" font-size="14.00">main</text>
</g>
<!-- example&#45;form&#45;groups&#45;&gt;main -->
<g id="edge20" class="edge"><title>example&#45;form&#45;groups&#45;&gt;main</title>
<path fill="none" stroke="black" d="M152.115,-159C152.115,-159 186.194,-159 186.194,-159"/>
<polygon fill="black" stroke="black" points="186.194,-162.5 196.194,-159 186.194,-155.5 186.194,-162.5"/>
</g>
<!-- labelmaker -->
<g id="node10" class="node"><title>labelmaker</title>
<polygon fill="none" stroke="black" points="122.5,-129 45.5,-129 45.5,-93 122.5,-93 122.5,-129"/>
<text text-anchor="middle" x="84" y="-107.3" font-family="Times,serif" font-size="14.00">labelmaker</text>
</g>
<!-- labelmaker&#45;&gt;read -->
<g id="edge9" class="edge"><title>labelmaker&#45;&gt;read</title>
<path fill="none" stroke="black" d="M122.803,-115C173.255,-115 255,-115 255,-115 255,-115 255,-165 255,-165 255,-165 481.742,-165 481.742,-165"/>
<polygon fill="black" stroke="black" points="481.742,-168.5 491.742,-165 481.742,-161.5 481.742,-168.5"/>
</g>
<!-- labelmaker&#45;&gt;graph -->
<g id="edge10" class="edge"><title>labelmaker&#45;&gt;graph</title>
<path fill="none" stroke="black" d="M84,-92.6521C84,-82.736 84,-72.5 84,-72.5 84,-72.5 625,-72.5 625,-72.5 625,-72.5 625,-88.9001 625,-88.9001"/>
<polygon fill="black" stroke="black" points="621.5,-88.9001 625,-98.9001 628.5,-88.9002 621.5,-88.9001"/>
</g>
<!-- website -->
<g id="node11" class="node"><title>website</title>
<polygon fill="none" stroke="black" points="113,-450 55,-450 55,-414 113,-414 113,-450"/>
<text text-anchor="middle" x="84" y="-428.3" font-family="Times,serif" font-size="14.00">website</text>
</g>
<!-- website&#45;&gt;latex&#45;in&#45;html -->
<g id="edge16" class="edge"><title>website&#45;&gt;latex&#45;in&#45;html</title>
<path fill="none" stroke="black" d="M94,-413.793C94,-408.445 94,-404 94,-404 94,-404 579.81,-404 579.81,-404"/>
<polygon fill="black" stroke="black" points="579.81,-407.5 589.81,-404 579.809,-400.5 579.81,-407.5"/>
</g>
<!-- website&#45;&gt;parse&#45;web&#45;input -->
<g id="edge17" class="edge"><title>website&#45;&gt;parse&#45;web&#45;input</title>
<path fill="none" stroke="black" d="M75,-413.773C75,-389.068 75,-348 75,-348 75,-348 571.913,-348 571.913,-348"/>
<polygon fill="black" stroke="black" points="571.913,-351.5 581.913,-348 571.913,-344.5 571.913,-351.5"/>
</g>
<!-- web&#45;draw -->
<g id="node12" class="node"><title>web&#45;draw</title>
<polygon fill="none" stroke="black" points="259,-450 188,-450 188,-414 259,-414 259,-450"/>
<text text-anchor="middle" x="223.5" y="-428.3" font-family="Times,serif" font-size="14.00">web&#45;draw</text>
</g>
<!-- website&#45;&gt;web&#45;draw -->
<g id="edge18" class="edge"><title>website&#45;&gt;web&#45;draw</title>
<path fill="none" stroke="black" d="M113.244,-438C113.244,-438 177.858,-438 177.858,-438"/>
<polygon fill="black" stroke="black" points="177.858,-441.5 187.858,-438 177.858,-434.5 177.858,-441.5"/>
</g>
<!-- website&#45;&gt;main -->
<g id="edge19" class="edge"><title>website&#45;&gt;main</title>
<path fill="none" stroke="black" d="M113.116,-426C138.065,-426 170,-426 170,-426 170,-426 170,-171 170,-171 170,-171 186.437,-171 186.437,-171"/>
<polygon fill="black" stroke="black" points="186.437,-174.5 196.437,-171 186.436,-167.5 186.437,-174.5"/>
</g>
<!-- test -->
<g id="node13" class="node"><title>test</title>
<polygon fill="none" stroke="black" points="349,-52 295,-52 295,-16 349,-16 349,-52"/>
<text text-anchor="middle" x="322" y="-30.3" font-family="Times,serif" font-size="14.00">test</text>
</g>
<!-- test&#45;&gt;read -->
<g id="edge21" class="edge"><title>test&#45;&gt;read</title>
<path fill="none" stroke="black" d="M349.337,-34C401.478,-34 510,-34 510,-34 510,-34 510,-128.851 510,-128.851"/>
<polygon fill="black" stroke="black" points="506.5,-128.851 510,-138.851 513.5,-128.851 506.5,-128.851"/>
</g>
<!-- test&#45;&gt;graph -->
<g id="edge22" class="edge"><title>test&#45;&gt;graph</title>
<path fill="none" stroke="black" d="M349.092,-25C426.48,-25 643,-25 643,-25 643,-25 643,-88.8238 643,-88.8238"/>
<polygon fill="black" stroke="black" points="639.5,-88.8237 643,-98.8238 646.5,-88.8238 639.5,-88.8237"/>
</g>
<!-- test&#45;&gt;predicates -->
<g id="edge23" class="edge"><title>test&#45;&gt;predicates</title>
<path fill="none" stroke="black" d="M349.052,-43C378.364,-43 421,-43 421,-43 421,-43 421,-108.876 421,-108.876"/>
<polygon fill="black" stroke="black" points="417.5,-108.876 421,-118.876 424.5,-108.876 417.5,-108.876"/>
</g>
<!-- main&#45;&gt;read -->
<g id="edge11" class="edge"><title>main&#45;&gt;read</title>
<path fill="none" stroke="black" d="M250.507,-170C250.507,-170 481.735,-170 481.735,-170"/>
<polygon fill="black" stroke="black" points="481.735,-173.5 491.735,-170 481.735,-166.5 481.735,-173.5"/>
</g>
<!-- main&#45;&gt;graph -->
<g id="edge12" class="edge"><title>main&#45;&gt;graph</title>
<path fill="none" stroke="black" d="M250.752,-179C342.435,-179 634,-179 634,-179 634,-179 634,-145.267 634,-145.267"/>
<polygon fill="black" stroke="black" points="637.5,-145.267 634,-135.267 630.5,-145.267 637.5,-145.267"/>
</g>
<!-- main&#45;&gt;draw -->
<g id="edge13" class="edge"><title>main&#45;&gt;draw</title>
<path fill="none" stroke="black" d="M224,-146.757C224,-139.57 224,-133 224,-133 224,-133 284.962,-133 284.962,-133"/>
<polygon fill="black" stroke="black" points="284.962,-136.5 294.962,-133 284.962,-129.5 284.962,-136.5"/>
</g>
<!-- main&#45;&gt;predicates -->
<g id="edge14" class="edge"><title>main&#45;&gt;predicates</title>
<path fill="none" stroke="black" d="M250.892,-151C250.892,-151 374.668,-151 374.668,-151"/>
<polygon fill="black" stroke="black" points="374.668,-154.5 384.668,-151 374.668,-147.5 374.668,-154.5"/>
</g>
</g>
</svg>
