<?xml version="1.0" encoding="UTF-8" standalone="no"?>
<!DOCTYPE svg PUBLIC "-//W3C//DTD SVG 1.1//EN"
 "http://www.w3.org/Graphics/SVG/1.1/DTD/svg11.dtd">
<!-- Generated by graphviz version 2.38.0 (20140413.2041)
 -->
<!-- Title: jeffrey Pages: 1 -->
<svg width="745pt" height="354pt"
 viewBox="0.00 0.00 745.00 354.00" xmlns="http://www.w3.org/2000/svg" xmlns:xlink="http://www.w3.org/1999/xlink">
<g id="graph0" class="graph" transform="scale(1 1) rotate(0) translate(4 350)">
<title>jeffrey</title>
<polygon fill="white" stroke="none" points="-4,4 -4,-350 741,-350 741,4 -4,4"/>
<!-- read -->
<g id="node1" class="node"><title>read</title>
<polygon fill="none" stroke="black" points="586,-296 532,-296 532,-260 586,-260 586,-296"/>
<text text-anchor="middle" x="559" y="-274.3" font-family="Times,serif" font-size="14.00">read</text>
</g>
<!-- graph -->
<g id="node2" class="node"><title>graph</title>
<polygon fill="none" stroke="black" points="715,-208 661,-208 661,-172 715,-172 715,-208"/>
<text text-anchor="middle" x="688" y="-186.3" font-family="Times,serif" font-size="14.00">graph</text>
</g>
<!-- read&#45;&gt;graph -->
<g id="edge1" class="edge"><title>read&#45;&gt;graph</title>
<path fill="none" stroke="black" d="M573,-259.782C573,-236.094 573,-197.714 573,-197.714 573,-197.714 650.747,-197.714 650.747,-197.714"/>
<polygon fill="black" stroke="black" points="650.747,-201.214 660.747,-197.714 650.747,-194.214 650.747,-201.214"/>
</g>
<!-- parse -->
<g id="node3" class="node"><title>parse</title>
<polygon fill="none" stroke="black" points="715,-333 661,-333 661,-297 715,-297 715,-333"/>
<text text-anchor="middle" x="688" y="-311.3" font-family="Times,serif" font-size="14.00">parse</text>
</g>
<!-- read&#45;&gt;parse -->
<g id="edge2" class="edge"><title>read&#45;&gt;parse</title>
<path fill="none" stroke="black" d="M573,-296.317C573,-301.936 573,-306.667 573,-306.667 573,-306.667 650.747,-306.667 650.747,-306.667"/>
<polygon fill="black" stroke="black" points="650.747,-310.167 660.747,-306.667 650.747,-303.167 650.747,-310.167"/>
</g>
<!-- process&#45;strings -->
<g id="node4" class="node"><title>process&#45;strings</title>
<polygon fill="none" stroke="black" points="737,-279 639,-279 639,-243 737,-243 737,-279"/>
<text text-anchor="middle" x="688" y="-257.3" font-family="Times,serif" font-size="14.00">process&#45;strings</text>
</g>
<!-- read&#45;&gt;process&#45;strings -->
<g id="edge3" class="edge"><title>read&#45;&gt;process&#45;strings</title>
<path fill="none" stroke="black" d="M586.043,-269.5C586.043,-269.5 628.845,-269.5 628.845,-269.5"/>
<polygon fill="black" stroke="black" points="628.845,-273 638.845,-269.5 628.845,-266 628.845,-273"/>
</g>
<!-- predicates -->
<g id="node5" class="node"><title>predicates</title>
<polygon fill="none" stroke="black" points="476,-300 405,-300 405,-264 476,-264 476,-300"/>
<text text-anchor="middle" x="440.5" y="-278.3" font-family="Times,serif" font-size="14.00">predicates</text>
</g>
<!-- predicates&#45;&gt;read -->
<g id="edge5" class="edge"><title>predicates&#45;&gt;read</title>
<path fill="none" stroke="black" d="M476.054,-285.333C476.054,-285.333 521.76,-285.333 521.76,-285.333"/>
<polygon fill="black" stroke="black" points="521.76,-288.833 531.76,-285.333 521.76,-281.833 521.76,-288.833"/>
</g>
<!-- predicates&#45;&gt;graph -->
<g id="edge4" class="edge"><title>predicates&#45;&gt;graph</title>
<path fill="none" stroke="black" d="M476.396,-274.667C499.027,-274.667 524,-274.667 524,-274.667 524,-274.667 524,-192.571 524,-192.571 524,-192.571 650.919,-192.571 650.919,-192.571"/>
<polygon fill="black" stroke="black" points="650.919,-196.072 660.919,-192.571 650.919,-189.072 650.919,-196.072"/>
</g>
<!-- draw -->
<g id="node6" class="node"><title>draw</title>
<polygon fill="none" stroke="black" points="366,-346 312,-346 312,-310 366,-310 366,-346"/>
<text text-anchor="middle" x="339" y="-324.3" font-family="Times,serif" font-size="14.00">draw</text>
</g>
<!-- draw&#45;&gt;read -->
<g id="edge7" class="edge"><title>draw&#45;&gt;read</title>
<path fill="none" stroke="black" d="M366.418,-325.333C425.393,-325.333 559,-325.333 559,-325.333 559,-325.333 559,-306.165 559,-306.165"/>
<polygon fill="black" stroke="black" points="562.5,-306.165 559,-296.165 555.5,-306.165 562.5,-306.165"/>
</g>
<!-- draw&#45;&gt;graph -->
<g id="edge6" class="edge"><title>draw&#45;&gt;graph</title>
<path fill="none" stroke="black" d="M366.161,-317.667C411.336,-317.667 497,-317.667 497,-317.667 497,-317.667 497,-187.429 497,-187.429 497,-187.429 650.634,-187.429 650.634,-187.429"/>
<polygon fill="black" stroke="black" points="650.634,-190.929 660.634,-187.429 650.634,-183.929 650.634,-190.929"/>
</g>
<!-- draw&#45;&gt;predicates -->
<g id="edge8" class="edge"><title>draw&#45;&gt;predicates</title>
<path fill="none" stroke="black" d="M348,-309.934C348,-300.541 348,-291 348,-291 348,-291 394.737,-291 394.737,-291"/>
<polygon fill="black" stroke="black" points="394.737,-294.5 404.737,-291 394.737,-287.5 394.737,-294.5"/>
</g>
<!-- labelmaker -->
<g id="node7" class="node"><title>labelmaker</title>
<polygon fill="none" stroke="black" points="479,-208 402,-208 402,-172 479,-172 479,-208"/>
<text text-anchor="middle" x="440.5" y="-186.3" font-family="Times,serif" font-size="14.00">labelmaker</text>
</g>
<!-- labelmaker&#45;&gt;read -->
<g id="edge10" class="edge"><title>labelmaker&#45;&gt;read</title>
<path fill="none" stroke="black" d="M479.301,-202.857C513.861,-202.857 559,-202.857 559,-202.857 559,-202.857 559,-249.81 559,-249.81"/>
<polygon fill="black" stroke="black" points="555.5,-249.81 559,-259.81 562.5,-249.81 555.5,-249.81"/>
</g>
<!-- labelmaker&#45;&gt;graph -->
<g id="edge9" class="edge"><title>labelmaker&#45;&gt;graph</title>
<path fill="none" stroke="black" d="M479.172,-182.286C479.172,-182.286 650.686,-182.286 650.686,-182.286"/>
<polygon fill="black" stroke="black" points="650.686,-185.786 660.686,-182.286 650.686,-178.786 650.686,-185.786"/>
</g>
<!-- main -->
<g id="node8" class="node"><title>main</title>
<polygon fill="none" stroke="black" points="251,-300 197,-300 197,-264 251,-264 251,-300"/>
<text text-anchor="middle" x="224" y="-278.3" font-family="Times,serif" font-size="14.00">main</text>
</g>
<!-- main&#45;&gt;read -->
<g id="edge12" class="edge"><title>main&#45;&gt;read</title>
<path fill="none" stroke="black" d="M224,-300C224,-302 224,-303.333 224,-303.333 224,-303.333 546,-303.333 546,-303.333 546,-303.333 546,-302.614 546,-302.614"/>
<polygon fill="black" stroke="black" points="549.5,-306.142 546,-296.142 542.5,-306.142 549.5,-306.142"/>
</g>
<!-- main&#45;&gt;graph -->
<g id="edge11" class="edge"><title>main&#45;&gt;graph</title>
<path fill="none" stroke="black" d="M233,-263.871C233,-243.428 233,-213 233,-213 233,-213 679,-213 679,-213 679,-213 679,-212.512 679,-212.512"/>
<polygon fill="black" stroke="black" points="682.5,-218.122 679,-208.122 675.5,-218.122 682.5,-218.122"/>
</g>
<!-- main&#45;&gt;predicates -->
<g id="edge13" class="edge"><title>main&#45;&gt;predicates</title>
<path fill="none" stroke="black" d="M251.42,-273C251.42,-273 394.677,-273 394.677,-273"/>
<polygon fill="black" stroke="black" points="394.677,-276.5 404.677,-273 394.677,-269.5 394.677,-276.5"/>
</g>
<!-- main&#45;&gt;draw -->
<g id="edge14" class="edge"><title>main&#45;&gt;draw</title>
<path fill="none" stroke="black" d="M251.023,-282C282.428,-282 330,-282 330,-282 330,-282 330,-299.82 330,-299.82"/>
<polygon fill="black" stroke="black" points="326.5,-299.82 330,-309.82 333.5,-299.82 326.5,-299.82"/>
</g>
<!-- latex&#45;in&#45;html -->
<g id="node9" class="node"><title>latex&#45;in&#45;html</title>
<polygon fill="none" stroke="black" points="603,-78 515,-78 515,-42 603,-42 603,-78"/>
<text text-anchor="middle" x="559" y="-56.3" font-family="Times,serif" font-size="14.00">latex&#45;in&#45;html</text>
</g>
<!-- latex&#45;in&#45;html&#45;&gt;graph -->
<g id="edge15" class="edge"><title>latex&#45;in&#45;html&#45;&gt;graph</title>
<path fill="none" stroke="black" d="M595,-78.0468C595,-110.906 595,-177.143 595,-177.143 595,-177.143 650.6,-177.143 650.6,-177.143"/>
<polygon fill="black" stroke="black" points="650.6,-180.643 660.6,-177.143 650.6,-173.643 650.6,-180.643"/>
</g>
<!-- website -->
<g id="node10" class="node"><title>website</title>
<polygon fill="none" stroke="black" points="97,-82 39,-82 39,-46 97,-46 97,-82"/>
<text text-anchor="middle" x="68" y="-60.3" font-family="Times,serif" font-size="14.00">website</text>
</g>
<!-- website&#45;&gt;main -->
<g id="edge16" class="edge"><title>website&#45;&gt;main</title>
<path fill="none" stroke="black" d="M97.0425,-70C139.883,-70 215,-70 215,-70 215,-70 215,-253.925 215,-253.925"/>
<polygon fill="black" stroke="black" points="211.5,-253.925 215,-263.925 218.5,-253.925 211.5,-253.925"/>
</g>
<!-- website&#45;&gt;latex&#45;in&#45;html -->
<g id="edge18" class="edge"><title>website&#45;&gt;latex&#45;in&#45;html</title>
<path fill="none" stroke="black" d="M97.2439,-62C97.2439,-62 504.975,-62 504.975,-62"/>
<polygon fill="black" stroke="black" points="504.975,-65.5001 514.975,-62 504.975,-58.5001 504.975,-65.5001"/>
</g>
<!-- parse&#45;web&#45;input -->
<g id="node11" class="node"><title>parse&#45;web&#45;input</title>
<polygon fill="none" stroke="black" points="276,-36 172,-36 172,-0 276,-0 276,-36"/>
<text text-anchor="middle" x="224" y="-14.3" font-family="Times,serif" font-size="14.00">parse&#45;web&#45;input</text>
</g>
<!-- website&#45;&gt;parse&#45;web&#45;input -->
<g id="edge17" class="edge"><title>website&#45;&gt;parse&#45;web&#45;input</title>
<path fill="none" stroke="black" d="M97.2222,-54C131.877,-54 185,-54 185,-54 185,-54 185,-46.4218 185,-46.4218"/>
<polygon fill="black" stroke="black" points="188.5,-46.4218 185,-36.4218 181.5,-46.4219 188.5,-46.4218"/>
</g>
<!-- example&#45;form&#45;groups -->
<g id="node12" class="node"><title>example&#45;form&#45;groups</title>
<polygon fill="none" stroke="black" points="136,-300 0,-300 0,-264 136,-264 136,-300"/>
<text text-anchor="middle" x="68" y="-278.3" font-family="Times,serif" font-size="14.00">example&#45;form&#45;groups</text>
</g>
<!-- example&#45;form&#45;groups&#45;&gt;main -->
<g id="edge19" class="edge"><title>example&#45;form&#45;groups&#45;&gt;main</title>
<path fill="none" stroke="black" d="M136.424,-282C136.424,-282 186.707,-282 186.707,-282"/>
<polygon fill="black" stroke="black" points="186.707,-285.5 196.707,-282 186.707,-278.5 186.707,-285.5"/>
</g>
<!-- test -->
<g id="node13" class="node"><title>test</title>
<polygon fill="none" stroke="black" points="366,-254 312,-254 312,-218 366,-218 366,-254"/>
<text text-anchor="middle" x="339" y="-232.3" font-family="Times,serif" font-size="14.00">test</text>
</g>
<!-- test&#45;&gt;read -->
<g id="edge21" class="edge"><title>test&#45;&gt;read</title>
<path fill="none" stroke="black" d="M366.062,-246.667C422.171,-246.667 546,-246.667 546,-246.667 546,-246.667 546,-249.773 546,-249.773"/>
<polygon fill="black" stroke="black" points="542.5,-249.773 546,-259.773 549.5,-249.773 542.5,-249.773"/>
</g>
<!-- test&#45;&gt;graph -->
<g id="edge20" class="edge"><title>test&#45;&gt;graph</title>
<path fill="none" stroke="black" d="M366.202,-230.5C449.747,-230.5 697,-230.5 697,-230.5 697,-230.5 697,-218.354 697,-218.354"/>
<polygon fill="black" stroke="black" points="700.5,-218.354 697,-208.354 693.5,-218.354 700.5,-218.354"/>
</g>
<!-- test&#45;&gt;predicates -->
<g id="edge22" class="edge"><title>test&#45;&gt;predicates</title>
<path fill="none" stroke="black" d="M366.066,-250.333C396.284,-250.333 441,-250.333 441,-250.333 441,-250.333 441,-253.947 441,-253.947"/>
<polygon fill="black" stroke="black" points="437.5,-253.947 441,-263.947 444.5,-253.947 437.5,-253.947"/>
</g>
</g>
</svg>
